General
Unique ID                                : 66268924291018903989843145735905868565 (0x31DAEE39AAF33B72F3BA759E6041FB15)
Complete name                            : Lawrence.of.Arabia.1962.1080p.UHD.BluRay.DDP7.1.DoVi.HDR10.x265-GALAXY.mkv
Format                                   : Matroska
Format version                           : Version 4
File size                                : 39.1 GiB
Duration                                 : 3 h 47 min
Overall bit rate                         : 24.7 Mb/s
Encoded date                             : UTC 2023-05-01 22:42:04
Writing application                      : mkvmerge v76.0 ('Celebration') 64-bit
Writing library                          : libebml v1.4.4 + libmatroska v1.7.1
IMDB                                     : tt0056172
TMDB                                     : movie/947

Video
ID                                       : 1
Format                                   : HEVC
Format/Info                              : High Efficiency Video Coding
Format profile                           : Main 10@L5.1@High
HDR format                               : SMPTE ST 2086, HDR10 compatible
Codec ID                                 : V_MPEGH/ISO/HEVC
Duration                                 : 3 h 47 min
Bit rate                                 : 22.9 Mb/s
Width                                    : 1 920 pixels
Height                                   : 872 pixels
Display aspect ratio                     : 2.2:1
Frame rate mode                          : Constant
Frame rate                               : 23.976 (24000/1001) FPS
Color space                              : YUV
Chroma subsampling                       : 4:2:0 (Type 2)
Bit depth                                : 10 bits
Bits/(Pixel*Frame)                       : 0.570
Stream size                              : 36.3 GiB (93%)
Writing library                          : x265 3.5+96-c07d076cf:[Windows][GCC 13.0.1][64 bit] 10bit
Encoding settings                        : cpuid=1111039 / frame-threads=4 / numa-pools=16 / wpp / no-pmode / no-pme / no-psnr / no-ssim / log-level=2 / input-csp=1 / input-res=1920x872 / interlace=0 / total-frames=0 / level-idc=51 / high-tier=1 / uhd-bd=0 / ref=5 / no-allow-non-conformance / repeat-headers / annexb / aud / no-eob / no-eos / hrd / info / hash=0 / temporal-layers=0 / open-gop / min-keyint=23 / keyint=250 / gop-lookahead=0 / bframes=12 / b-adapt=2 / b-pyramid / bframe-bias=0 / rc-lookahead=40 / lookahead-slices=4 / scenecut=40 / no-hist-scenecut / radl=0 / no-splice / no-intra-refresh / ctu=64 / min-cu-size=8 / no-rect / no-amp / max-tu-size=32 / tu-inter-depth=4 / tu-intra-depth=4 / limit-tu=4 / rdoq-level=2 / dynamic-rd=0.00 / no-ssim-rd / signhide / no-tskip / nr-intra=0 / nr-inter=0 / no-constrained-intra / strong-intra-smoothing / max-merge=4 / limit-refs=1 / limit-modes / me=3 / subme=5 / merange=57 / temporal-mvp / no-frame-dup / no-hme / weightp / weightb / no-analyze-src-pics / deblock=-3:-3 / no-sao / no-sao-non-deblock / rd=4 / selective-sao=0 / no-early-skip / no-rskip / no-fast-intra / no-tskip-fast / no-cu-lossless / b-intra / no-splitrd-skip / rdpenalty=0 / psy-rd=2.00 / psy-rdoq=2.00 / no-rd-refine / no-lossless / cbqpoffs=0 / crqpoffs=0 / rc=crf / crf=14.0 / qcomp=0.60 / qpstep=4 / stats-write=0 / stats-read=0 / vbv-maxrate=160000 / vbv-bufsize=160000 / vbv-init=0.9 / min-vbv-fullness=50.0 / max-vbv-fullness=80.0 / crf-max=0.0 / crf-min=0.0 / ipratio=1.30 / pbratio=1.20 / aq-mode=4 / aq-strength=1.00 / no-cutree / zone-count=0 / no-strict-cbr / qg-size=32 / no-rc-grain / qpmax=69 / qpmin=0 / no-const-vbv / sar=0 / overscan=0 / videoformat=5 / range=0 / colorprim=9 / transfer=16 / colormatrix=9 / chromaloc=1 / chromaloc-top=2 / chromaloc-bottom=2 / display-window=0 / master-display=G(13250,34500)B(7500,3000)R(34000,16000)WP(15635,16450)L(10000000,1) / cll=1289,364 / min-luma=0 / max-luma=1023 / log2-max-poc-lsb=8 / vui-timing-info / vui-hrd-info / slices=1 / no-opt-qp-pps / no-opt-ref-list-length-pps / no-multi-pass-opt-rps / scenecut-bias=0.05 / no-opt-cu-delta-qp / no-aq-motion / hdr10 / hdr10-opt / no-dhdr10-opt / no-idr-recovery-sei / analysis-reuse-level=0 / analysis-save-reuse-level=0 / analysis-load-reuse-level=0 / scale-factor=0 / refine-intra=0 / refine-inter=0 / refine-mv=1 / refine-ctu-distortion=0 / no-limit-sao / ctu-info=0 / no-lowpass-dct / refine-analysis-type=0 / copy-pic=1 / max-ausize-factor=1.0 / no-dynamic-refine / no-single-sei / no-hevc-aq / no-svt / no-field / qp-adaptation-range=1.00 / scenecut-aware-qp=0conformance-window-offsets / right=0 / bottom=0 / decoder-max-rate=0 / no-vbv-live-multi-pass / no-mcstf / no-sbrc
Language                                 : English
Default                                  : Yes
Forced                                   : No
Color range                              : Limited
Color primaries                          : BT.2020
Transfer characteristics                 : PQ
Matrix coefficients                      : BT.2020 non-constant
Mastering display color primaries        : Display P3
Mastering display luminance              : min: 0.0001 cd/m2, max: 1000 cd/m2
Maximum Content Light Level              : 1289 cd/m2
Maximum Frame-Average Light Level        : 364 cd/m2

Audio
ID                                       : 2
Format                                   : E-AC-3
Format/Info                              : Enhanced AC-3
Commercial name                          : Dolby Digital Plus
Format profile                           : Blu-ray Disc
Codec ID                                 : A_EAC3
Duration                                 : 3 h 47 min
Bit rate mode                            : Constant
Bit rate                                 : 1 536 kb/s
Channel(s)                               : 8 channels
Channel layout                           : L R C LFE Ls Rs Lb Rb
Sampling rate                            : 48.0 kHz
Frame rate                               : 31.250 FPS (1536 SPF)
Compression mode                         : Lossy
Stream size                              : 2.44 GiB (6%)
Language                                 : English
Service kind                             : Complete Main
Default                                  : Yes
Forced                                   : No

Text #1
ID                                       : 3
Format                                   : UTF-8
Codec ID                                 : S_TEXT/UTF8
Codec ID/Info                            : UTF-8 Plain Text
Duration                                 : 3 h 35 min
Bit rate                                 : 36 b/s
Count of elements                        : 1882
Stream size                              : 56.9 KiB (0%)
Language                                 : English
Default                                  : No
Forced                                   : No

Text #2
ID                                       : 4
Format                                   : PGS
Muxing mode                              : zlib
Codec ID                                 : S_HDMV/PGS
Codec ID/Info                            : Picture based subtitle format used on BDs/HD-DVDs
Duration                                 : 3 h 35 min
Bit rate                                 : 21.2 kb/s
Count of elements                        : 3763
Stream size                              : 32.6 MiB (0%)
Title                                    : English
Language                                 : English
Default                                  : No
Forced                                   : No

Text #3
ID                                       : 5
Format                                   : PGS
Muxing mode                              : zlib
Codec ID                                 : S_HDMV/PGS
Codec ID/Info                            : Picture based subtitle format used on BDs/HD-DVDs
Duration                                 : 3 h 43 min
Bit rate                                 : 22.5 kb/s
Count of elements                        : 4173
Stream size                              : 35.9 MiB (0%)
Title                                    : English (SDH)
Language                                 : English
Default                                  : No
Forced                                   : No

Text #4
ID                                       : 6
Format                                   : PGS
Muxing mode                              : zlib
Codec ID                                 : S_HDMV/PGS
Codec ID/Info                            : Picture based subtitle format used on BDs/HD-DVDs
Duration                                 : 3 h 39 min
Bit rate                                 : 11.6 kb/s
Count of elements                        : 3681
Stream size                              : 18.3 MiB (0%)
Title                                    : Arabic
Language                                 : Arabic
Default                                  : No
Forced                                   : No

Text #5
ID                                       : 7
Format                                   : PGS
Muxing mode                              : zlib
Codec ID                                 : S_HDMV/PGS
Codec ID/Info                            : Picture based subtitle format used on BDs/HD-DVDs
Duration                                 : 3 h 39 min
Bit rate                                 : 19.5 kb/s
Count of elements                        : 3693
Stream size                              : 30.7 MiB (0%)
Title                                    : Chinese (Mandarin Simplified)
Language                                 : Chinese
Default                                  : No
Forced                                   : No

Text #6
ID                                       : 8
Format                                   : PGS
Muxing mode                              : zlib
Codec ID                                 : S_HDMV/PGS
Codec ID/Info                            : Picture based subtitle format used on BDs/HD-DVDs
Duration                                 : 3 h 39 min
Bit rate                                 : 20.1 kb/s
Count of elements                        : 3691
Stream size                              : 31.6 MiB (0%)
Title                                    : Chinese (Mandarin Traditional)
Language                                 : Chinese
Default                                  : No
Forced                                   : No

Text #7
ID                                       : 9
Format                                   : PGS
Muxing mode                              : zlib
Codec ID                                 : S_HDMV/PGS
Codec ID/Info                            : Picture based subtitle format used on BDs/HD-DVDs
Duration                                 : 3 h 39 min
Bit rate                                 : 18.1 kb/s
Count of elements                        : 3681
Stream size                              : 28.5 MiB (0%)
Title                                    : Czech
Language                                 : Czech
Default                                  : No
Forced                                   : No

Text #8
ID                                       : 10
Format                                   : PGS
Muxing mode                              : zlib
Codec ID                                 : S_HDMV/PGS
Codec ID/Info                            : Picture based subtitle format used on BDs/HD-DVDs
Duration                                 : 3 h 39 min
Bit rate                                 : 17.7 kb/s
Count of elements                        : 2765
Stream size                              : 27.7 MiB (0%)
Title                                    : Danish
Language                                 : Danish
Default                                  : No
Forced                                   : No

Text #9
ID                                       : 11
Format                                   : PGS
Muxing mode                              : zlib
Codec ID                                 : S_HDMV/PGS
Codec ID/Info                            : Picture based subtitle format used on BDs/HD-DVDs
Duration                                 : 3 h 39 min
Bit rate                                 : 18.8 kb/s
Count of elements                        : 2601
Stream size                              : 29.5 MiB (0%)
Title                                    : Dutch
Language                                 : Dutch
Default                                  : No
Forced                                   : No

Text #10
ID                                       : 12
Format                                   : PGS
Muxing mode                              : zlib
Codec ID                                 : S_HDMV/PGS
Codec ID/Info                            : Picture based subtitle format used on BDs/HD-DVDs
Duration                                 : 3 h 36 min
Bit rate                                 : 19.3 kb/s
Count of elements                        : 2631
Stream size                              : 29.8 MiB (0%)
Title                                    : Finnish
Language                                 : Finnish
Default                                  : No
Forced                                   : No

Text #11
ID                                       : 13
Format                                   : PGS
Muxing mode                              : zlib
Codec ID                                 : S_HDMV/PGS
Codec ID/Info                            : Picture based subtitle format used on BDs/HD-DVDs
Duration                                 : 3 h 39 min
Bit rate                                 : 20.7 kb/s
Count of elements                        : 3677
Stream size                              : 32.4 MiB (0%)
Title                                    : French
Language                                 : French
Default                                  : No
Forced                                   : No

Text #12
ID                                       : 14
Format                                   : PGS
Muxing mode                              : zlib
Codec ID                                 : S_HDMV/PGS
Codec ID/Info                            : Picture based subtitle format used on BDs/HD-DVDs
Duration                                 : 3 h 39 min
Bit rate                                 : 24.8 kb/s
Count of elements                        : 3685
Stream size                              : 38.9 MiB (0%)
Title                                    : German
Language                                 : German
Default                                  : No
Forced                                   : No

Text #13
ID                                       : 15
Format                                   : PGS
Muxing mode                              : zlib
Codec ID                                 : S_HDMV/PGS
Codec ID/Info                            : Picture based subtitle format used on BDs/HD-DVDs
Duration                                 : 3 h 36 min
Bit rate                                 : 19.0 kb/s
Count of elements                        : 3671
Stream size                              : 29.5 MiB (0%)
Title                                    : Greek
Language                                 : Greek
Default                                  : No
Forced                                   : No

Text #14
ID                                       : 16
Format                                   : PGS
Muxing mode                              : zlib
Codec ID                                 : S_HDMV/PGS
Codec ID/Info                            : Picture based subtitle format used on BDs/HD-DVDs
Duration                                 : 3 h 39 min
Bit rate                                 : 15.0 kb/s
Count of elements                        : 3683
Stream size                              : 23.6 MiB (0%)
Title                                    : Hebrew
Language                                 : Hebrew
Default                                  : No
Forced                                   : No

Text #15
ID                                       : 17
Format                                   : PGS
Muxing mode                              : zlib
Codec ID                                 : S_HDMV/PGS
Codec ID/Info                            : Picture based subtitle format used on BDs/HD-DVDs
Duration                                 : 3 h 39 min
Bit rate                                 : 16.3 kb/s
Count of elements                        : 3681
Stream size                              : 25.7 MiB (0%)
Title                                    : Hindi
Language                                 : Hindi
Default                                  : No
Forced                                   : No

Text #16
ID                                       : 18
Format                                   : PGS
Muxing mode                              : zlib
Codec ID                                 : S_HDMV/PGS
Codec ID/Info                            : Picture based subtitle format used on BDs/HD-DVDs
Duration                                 : 3 h 39 min
Bit rate                                 : 17.0 kb/s
Count of elements                        : 3677
Stream size                              : 26.8 MiB (0%)
Title                                    : Hungarian
Language                                 : Hungarian
Default                                  : No
Forced                                   : No

Text #17
ID                                       : 19
Format                                   : PGS
Muxing mode                              : zlib
Codec ID                                 : S_HDMV/PGS
Codec ID/Info                            : Picture based subtitle format used on BDs/HD-DVDs
Duration                                 : 3 h 39 min
Bit rate                                 : 18.7 kb/s
Count of elements                        : 3677
Stream size                              : 29.4 MiB (0%)
Title                                    : Italian
Language                                 : Italian
Default                                  : No
Forced                                   : No

Text #18
ID                                       : 20
Format                                   : PGS
Muxing mode                              : zlib
Codec ID                                 : S_HDMV/PGS
Codec ID/Info                            : Picture based subtitle format used on BDs/HD-DVDs
Duration                                 : 3 h 35 min
Bit rate                                 : 17.7 kb/s
Count of elements                        : 3531
Stream size                              : 27.2 MiB (0%)
Title                                    : Japanese
Language                                 : Japanese
Default                                  : No
Forced                                   : No

Text #19
ID                                       : 21
Format                                   : PGS
Muxing mode                              : zlib
Codec ID                                 : S_HDMV/PGS
Codec ID/Info                            : Picture based subtitle format used on BDs/HD-DVDs
Duration                                 : 3 h 38 min
Bit rate                                 : 15.4 kb/s
Count of elements                        : 3693
Stream size                              : 24.1 MiB (0%)
Title                                    : Korean
Language                                 : Korean
Default                                  : No
Forced                                   : No

Text #20
ID                                       : 22
Format                                   : PGS
Muxing mode                              : zlib
Codec ID                                 : S_HDMV/PGS
Codec ID/Info                            : Picture based subtitle format used on BDs/HD-DVDs
Duration                                 : 3 h 36 min
Bit rate                                 : 16.7 kb/s
Count of elements                        : 2633
Stream size                              : 25.8 MiB (0%)
Title                                    : Norwegian
Language                                 : Norwegian
Default                                  : No
Forced                                   : No

Text #21
ID                                       : 23
Format                                   : PGS
Muxing mode                              : zlib
Codec ID                                 : S_HDMV/PGS
Codec ID/Info                            : Picture based subtitle format used on BDs/HD-DVDs
Duration                                 : 3 h 39 min
Bit rate                                 : 17.3 kb/s
Count of elements                        : 3677
Stream size                              : 27.2 MiB (0%)
Title                                    : Polish
Language                                 : Polish
Default                                  : No
Forced                                   : No

Text #22
ID                                       : 24
Format                                   : PGS
Muxing mode                              : zlib
Codec ID                                 : S_HDMV/PGS
Codec ID/Info                            : Picture based subtitle format used on BDs/HD-DVDs
Duration                                 : 3 h 41 min
Bit rate                                 : 18.6 kb/s
Count of elements                        : 3697
Stream size                              : 29.5 MiB (0%)
Title                                    : Portuguese (Brazilian)
Language                                 : Portuguese
Default                                  : No
Forced                                   : No

Text #23
ID                                       : 25
Format                                   : PGS
Muxing mode                              : zlib
Codec ID                                 : S_HDMV/PGS
Codec ID/Info                            : Picture based subtitle format used on BDs/HD-DVDs
Duration                                 : 3 h 41 min
Bit rate                                 : 21.8 kb/s
Count of elements                        : 3681
Stream size                              : 34.6 MiB (0%)
Title                                    : Portuguese (Iberian)
Language                                 : Portuguese
Default                                  : No
Forced                                   : No

Text #24
ID                                       : 26
Format                                   : PGS
Muxing mode                              : zlib
Codec ID                                 : S_HDMV/PGS
Codec ID/Info                            : Picture based subtitle format used on BDs/HD-DVDs
Duration                                 : 3 h 41 min
Bit rate                                 : 19.6 kb/s
Count of elements                        : 3693
Stream size                              : 31.0 MiB (0%)
Title                                    : Romanian
Language                                 : Romanian
Default                                  : No
Forced                                   : No

Text #25
ID                                       : 27
Format                                   : PGS
Muxing mode                              : zlib
Codec ID                                 : S_HDMV/PGS
Codec ID/Info                            : Picture based subtitle format used on BDs/HD-DVDs
Duration                                 : 3 h 38 min
Bit rate                                 : 22.5 kb/s
Count of elements                        : 3791
Stream size                              : 35.1 MiB (0%)
Title                                    : Russian
Language                                 : Russian
Default                                  : No
Forced                                   : No

Text #26
ID                                       : 28
Format                                   : PGS
Muxing mode                              : zlib
Codec ID                                 : S_HDMV/PGS
Codec ID/Info                            : Picture based subtitle format used on BDs/HD-DVDs
Duration                                 : 3 h 41 min
Bit rate                                 : 18.2 kb/s
Count of elements                        : 3681
Stream size                              : 28.8 MiB (0%)
Title                                    : Spanish (Castilian)
Language                                 : Spanish
Default                                  : No
Forced                                   : No

Text #27
ID                                       : 29
Format                                   : PGS
Muxing mode                              : zlib
Codec ID                                 : S_HDMV/PGS
Codec ID/Info                            : Picture based subtitle format used on BDs/HD-DVDs
Duration                                 : 3 h 38 min
Bit rate                                 : 18.3 kb/s
Count of elements                        : 3685
Stream size                              : 28.6 MiB (0%)
Title                                    : Spanish (Latin American)
Language                                 : Spanish
Default                                  : No
Forced                                   : No

Text #28
ID                                       : 30
Format                                   : PGS
Muxing mode                              : zlib
Codec ID                                 : S_HDMV/PGS
Codec ID/Info                            : Picture based subtitle format used on BDs/HD-DVDs
Duration                                 : 3 h 36 min
Bit rate                                 : 16.7 kb/s
Count of elements                        : 2629
Stream size                              : 25.9 MiB (0%)
Title                                    : Swedish
Language                                 : Swedish
Default                                  : No
Forced                                   : No

Text #29
ID                                       : 31
Format                                   : PGS
Muxing mode                              : zlib
Codec ID                                 : S_HDMV/PGS
Codec ID/Info                            : Picture based subtitle format used on BDs/HD-DVDs
Duration                                 : 3 h 36 min
Bit rate                                 : 20.0 kb/s
Count of elements                        : 3689
Stream size                              : 30.9 MiB (0%)
Title                                    : Thai
Language                                 : Thai
Default                                  : No
Forced                                   : No

Text #30
ID                                       : 32
Format                                   : PGS
Muxing mode                              : zlib
Codec ID                                 : S_HDMV/PGS
Codec ID/Info                            : Picture based subtitle format used on BDs/HD-DVDs
Duration                                 : 3 h 39 min
Bit rate                                 : 18.6 kb/s
Count of elements                        : 3685
Stream size                              : 29.2 MiB (0%)
Title                                    : Turkish
Language                                 : Turkish
Default                                  : No
Forced                                   : No

Menu
00:00:00.000                             : en:Overture 
00:06:10.450                             : en:Death of a Legend
00:09:31.022                             : en:On Staff, in Cairo
00:11:40.182                             : en:Dryden & Murray
00:12:26.814                             : en:A Chat With the General
00:16:25.799                             : en:"Find Prince Feisal"
00:17:43.752                             : en:The Desert Journey Begins
00:20:51.023                             : en:Friendship
00:23:57.152                             : en:Ali at the Well
00:34:49.991                             : en:Colonel Brighton
00:36:46.522                             : en:What Modern Weapons Do
00:43:36.513                             : en:In Feisal's Tent
00:49:29.700                             : en:"Time To Be Great Again"
00:52:22.748                             : en:"We Need a Miracle"
00:55:06.982                             : en:"The Nefud Cannot Be Crossed!"
00:56:26.408                             : en:"In Whose Name Do You Ride?"
00:59:04.522                             : en:At the Oasis
00:59:54.658                             : en:"That Is the Railway"
01:01:21.954                             : en:"You Were Drifting"
01:03:04.924                             : en:Lost in the Desert
01:16:24.104                             : :Rescue of Gasim
01:19:03.439                             : :"Nothing is Written"
01:22:49.364                             : en:El Aurens
01:24:52.111                             : en:Robes of a Sharif
01:26:16.364                             : en:Auda aby Tayi & Son
01:29:39.523                             : :Ali Vs. Auda
01:30:24.238                             : en:"Dine With Me at Wadi Rum!"
01:33:14.444                             : en:Execution of Gasim
01:46:48.514                             : :Attack on Akaba
01:49:08.654                             : en:"The Miracle Is Accomplished"
01:51:08.356                             : en:No Gold in Akaba
01:54:43.781                             : en:Quicksand
01:59:18.993                             : en:Suez Canal
02:03:19.379                             : en:The Officers' Bar
02:07:58.577                             : en:General Allenby
02:12:40.022                             : :Planning the Campaign
02:18:58.567                             : :Entr'acte
02:23:39.809                             : :Jackson Bently, Journalist
02:30:05.527                             : :Destroying the Turkish Railway
02:36:47.346                             : :"It's Clean"
02:39:27.043                             : :Something Honorable
02:43:35.630                             : :Detonator 
02:46:28.124                             : :Capture in Deraa
02:51:11.794                             : :"Beat Him"
02:57:08.430                             : :"Sleep... Eat"
02:58:40.530                             : :"Any Man Is What I Am"
03:02:20.084                             : :Entering Jerusalem
03:09:06.340                             : :A Clash of Temperment
03:10:54.977                             : :Bodyguard 
03:14:18.169                             : :British Staff Meeting
03:15:14.074                             : :Roads to Damascus
03:17:50.226                             : :"No Prisoners!"
03:25:43.114                             : :Chaos in Damascus
03:26:16.732                             : :Turkish Hospital
03:27:36.979                             : :Going Home
03:43:30.081                             : :End Credits & Exit Music
